<svg xmlns="http://www.w3.org/2000/svg" width="134" height="40" viewBox="0 0 134 40" fill="none"><g clip-path="url(#clip0_23_47)"><path d="M129.083 38.6299V36.4298H128.239V35.988H130.458V36.4298H129.617V38.6299H129.083ZM130.901 38.6299V35.9792H131.742L132.229 37.7846L132.716 35.9792H133.56V38.6299H133.029V36.5682L132.495 38.6299H131.963L131.432 36.5682V38.6299H130.901Z" fill="#49C5FE"></path><path d="M113.679 0.309278C108.047 0.309278 103.224 2.07643 98.9977 5.73148C95.4145 8.86523 92.6784 12.9738 89.9955 16.9558C84.1898 25.5942 78.7265 33.7261 65.2291 33.7261C58.7039 33.7637 53.0143 29.3069 51.5015 22.973H81.1349C82.2827 22.9759 83.3813 22.5089 84.1746 21.6812C84.9678 20.8535 85.3862 19.7374 85.332 18.5934C85.332 18.5698 85.332 18.5521 85.332 18.5374C85.2907 18.0073 85.2287 17.4801 85.1461 16.9588C84.0177 10.1169 79.3815 4.36417 72.9267 1.79663C65.3996 -1.25611 56.7757 0.422003 50.9495 6.07313C47.3859 9.54108 45.2857 14.2373 45.0789 19.2001C44.6037 18.505 44.1315 17.8041 43.6563 17.0972C40.9674 13.1152 38.2372 9.0066 34.6511 5.87285C30.4245 2.22663 25.6017 0.45065 19.9672 0.45065C10.3865 0.45065 2.52947 6.73581 0.516521 15.6305C0.489957 15.7365 0.45749 15.8396 0.433878 15.9485C0.38075 16.1989 0.345331 16.4934 0.295155 16.7526C0.22727 17.1443 0.162336 17.536 0.118063 17.9307C0.103305 18.1339 0.0944504 18.3401 0.0796927 18.5551C0.0472258 18.991 0.0118073 19.4387 0.0147588 19.8628C0.0147588 19.9629 0.0147588 20.0601 0.0147588 20.1573C1.08778e-06 20.4872 0.0147588 20.8377 0.0413227 21.2058C0.177887 23.4373 0.697014 25.629 1.57612 27.6854C1.64106 27.8532 1.70599 28.027 1.77388 28.1861C2.34705 29.4486 3.05246 30.6471 3.87833 31.7616L10.3599 39.6961H17.9395L8.40894 28.0535C7.48315 26.754 6.79286 25.3026 6.36943 23.7652C6.06456 22.5952 5.90204 21.3927 5.88538 20.1838C5.88538 12.6057 12.2017 6.4619 19.9672 6.4619C24.0993 6.4619 27.5202 7.73425 30.5927 10.4026C33.5826 12.9856 36.0147 16.5877 38.5619 20.4401C41.6344 25.014 44.7926 29.7146 49.3586 33.4404C50.4625 34.324 53.8656 37.066 58.6088 38.6093H58.6324L58.9984 38.7242C61.0128 39.3665 63.1143 39.6953 65.2291 39.699C72.7407 39.699 78.9715 37.5814 84.2636 33.302C88.8414 29.5762 91.9995 24.8756 95.0721 20.3016C97.634 16.4463 100.066 12.8472 103.041 10.2642C106.114 7.59582 109.535 6.32348 113.667 6.32348C121.435 6.32348 127.752 12.4643 127.752 20.0454C127.752 27.6265 121.435 33.7673 113.667 33.7673C106.878 33.7673 98.5608 28.94 99.585 16.6584L94.0922 24.7048C95.2728 33.6848 103.95 39.699 113.679 39.699C124.818 39.699 133.864 30.8898 133.864 20.0042C133.864 9.11852 124.818 0.309278 113.679 0.309278ZM65.1553 6.18505C71.7726 6.18505 77.4898 10.6324 78.9419 16.944H51.4159C52.9263 10.6028 58.6236 6.14143 65.1553 6.18505Z" fill="#49C5FE"></path></g><defs><clipPath id="clip0_23_47"><rect width="134" height="40" fill="white"></rect></clipPath></defs></svg>